<?xml version="1.0" encoding="UTF-8"?>
<svg version="1.1" xmlns="http://www.w3.org/2000/svg" width="600" height="355">
<path d="M0 0 C0.33 0.66 0.66 1.32 1 2 C1.8971875 2.4021875 1.8971875 2.4021875 2.8125 2.8125 C8.0216198 5.64030789 9.96530605 10.73836005 11.6875 16.125 C11.92952148 16.86274658 12.17154297 17.60049316 12.42089844 18.3605957 C16.36846223 30.84300607 19.39108102 43.63171035 22.55445862 56.33058167 C23.34525708 59.4894937 24.18417522 62.61251484 25.12207031 65.73168945 C26 69 26 69 26 73 C42.52788312 57.97465171 49.63770336 36.54459948 54.2265625 15.41796875 C55.09762181 12.6948086 56.00519814 11.05021303 58 9 C62.15535286 7.57597458 65.91229461 7.53714664 69.9375 9.25 C72 11 72 11 74 14 C74 15.32 74 16.64 74 18 C74.66 18.33 75.32 18.66 76 19 C74.95988985 38.18823903 65.72220482 56.98735173 54 72 C52.87212457 73.49783912 51.74704091 74.99778523 50.625 76.5 C49.75 77.66666667 48.875 78.83333333 48 80 C52.87288078 78.70719489 57.4071658 77.08684117 62 75 C63.28970703 74.42378906 63.28970703 74.42378906 64.60546875 73.8359375 C66.50351853 72.9824696 68.39420311 72.11244159 70.27734375 71.2265625 C73 70 73 70 75.37890625 69.2109375 C77.69212847 68.36744211 79.19843095 67.69008582 81 66 C82.14203338 63.03510565 82.76777439 60.15752816 83.3671875 57.0390625 C85.04872459 48.96353253 89.75786283 42.07165565 96.5 37.3125 C103.00776574 33.58854399 110.04251299 31.14694169 117.515625 32.7578125 C123.51320264 34.93501534 128.48131047 37.48131047 133 42 C132.95359375 41.21496094 132.9071875 40.42992187 132.859375 39.62109375 C132.5824092 31.55941057 133.20722924 27.21418974 138.6875 21.125 C142.36390446 19.33647891 145.92096777 18.77299299 150 19 C154.94038854 21.33037195 157.20094112 24.40154613 160 29 C160.99 29.99 160.99 29.99 162 31 C162.91547527 32.77586671 163.79110883 34.5723992 164.64453125 36.37890625 C167.85558253 42.9092465 171.64534022 48.89625033 175.6875 54.9375 C177.0046055 56.92531811 178.32103649 58.91358335 179.63671875 60.90234375 C180.49849731 62.19386353 180.49849731 62.19386353 181.37768555 63.51147461 C186 70.60180587 186 70.60180587 186 73 C186.66 73 187.32 73 188 73 C188.49628906 74.00417969 188.99257813 75.00835937 189.50390625 76.04296875 C191.64994648 80.37177461 193.81880264 84.68881172 196 89 C196.30921387 89.61262695 196.61842773 90.22525391 196.93701172 90.85644531 C200.57438176 98.00892086 204.59119265 104.49864247 209.49609375 110.85546875 C211 113 211 113 211 115 C211.66 115 212.32 115 213 115 C213 111.43925254 212.12968262 108.6673876 211.125 105.25 C210.60292969 103.46335938 210.60292969 103.46335938 210.0703125 101.640625 C209.34959925 99.18914781 208.62557573 96.73864165 207.8984375 94.2890625 C207 91 207 91 206.5 87.125 C206.335 86.09375 206.17 85.0625 206 84 C205.34 83.67 204.68 83.34 204 83 C201.6237538 75.17456096 200.57761733 66.82146374 199.3125 58.75 C199.11539429 57.5283313 199.11539429 57.5283313 198.91430664 56.28198242 C198.04442599 50.48492017 197.85316778 44.85547252 198 39 C198.01667725 38.13963135 198.03335449 37.2792627 198.05053711 36.39282227 C198.32477189 27.81062225 202.40173311 20.52034387 208.125 14.25 C215.37453953 7.59258621 224.38695246 2.98731271 234 1 C234.845625 0.82339844 235.69125 0.64679687 236.5625 0.46484375 C242.7451271 -0.5059041 246.88271263 0.35531331 252 4 C254.97637304 6.60432641 254.99088294 7.91794649 255.4375 11.9375 C255.26045335 16.07885208 254.09896109 18.14569373 251 21 C245.6088655 24.12669684 240.22409959 25.20386689 234.18945312 26.37304688 C228.67171007 27.54734838 224.84655257 29.16403388 221.63671875 34.09375 C209.59488712 64.6195454 228.59188213 104.86341449 239.28857422 133.35522461 C239.59106079 134.16146774 239.89354736 134.96771088 240.2052002 135.79838562 C240.77805863 137.32184962 241.35321307 138.84445292 241.93103027 140.36604309 C244.57676299 147.3833211 246.8736814 154.56233352 243.8125 161.8125 C240.97704733 165.23459806 238.38481548 167.43348457 234.25 169.125 C228.9198475 168.91999413 225.85162812 166.57996156 222 163 C215.47541573 155.50592761 210.26648515 146.96718185 205.171875 138.47265625 C202.56144126 134.21504383 199.69119339 130.14156332 196.8125 126.0625 C196.31306885 125.3523877 195.8136377 124.64227539 195.29907227 123.91064453 C193.0768803 120.78574486 190.82626836 117.74120979 188.3359375 114.82421875 C186.1831396 112.22142129 184.48594823 109.67516956 182.8125 106.75 C181.31896604 104.14912291 180.12440222 102.12440222 178 100 C177.67 98.989375 177.34 97.97875 177 96.9375 C176.34247444 93.87849194 176.34247444 93.87849194 174 93 C173.07749272 91.67773956 172.20772289 90.31806689 171.375 88.9375 C170.92898438 88.20402344 170.48296875 87.47054687 170.0234375 86.71484375 C169.51683594 85.86599609 169.51683594 85.86599609 169 85 C168.97283911 88.02089478 168.95308343 91.04154129 168.9375 94.0625 C168.92912109 94.91005859 168.92074219 95.75761719 168.91210938 96.63085938 C168.89319263 101.53029752 169.20547154 106.15103952 170 111 C173.0837626 139.81985542 173.0837626 139.81985542 168 151 C168.56380371 150.85127441 169.12760742 150.70254883 169.70849609 150.54931641 C177.12619746 148.80807892 184.05280302 148.95291544 191.625 149.375 C192.81996094 149.43171875 194.01492188 149.4884375 195.24609375 149.546875 C198.16478937 149.68697239 201.08243891 149.83823297 204 150 C204 150.66 204 151.32 204 152 C205.65 152.66 207.3 153.32 209 154 C208.67 155.32 208.34 156.64 208 158 C202.00661307 160.0449004 196.36676239 160.41816159 190.0625 160.625 C189.09248047 160.66367188 188.12246094 160.70234375 187.12304688 160.7421875 C184.74887924 160.83575076 182.37470508 160.92149208 180 161 C179.67 161.66 179.34 162.32 179 163 C177.16748047 163.43725586 177.16748047 163.43725586 174.7421875 163.77734375 C168.0680013 164.99266815 162.25358257 167.73364481 156.125 170.5625 C153.92050442 171.56651506 151.71482369 172.56793311 149.5078125 173.56640625 C148.54504395 174.00927979 147.58227539 174.45215332 146.59033203 174.90844727 C144 176 144 176 141.71826172 176.52709961 C141.15123535 176.68315674 140.58420898 176.83921387 140 177 C139.67 177.66 139.34 178.32 139 179 C136.71763879 180.06967059 134.47103085 181.02901036 132.125 181.9375 C131.44244141 182.20256348 130.75988281 182.46762695 130.05664062 182.74072266 C117.47194325 187.54713172 103.74450055 191.06305872 90.4765625 186.359375 C80.15545571 180.69416181 73.49562357 172.03918084 70.046875 160.9296875 C66.48214883 146.96244223 67.57058413 132.2175829 69 118 C69.66 118 70.32 118 71 118 C71.103125 116.865625 71.20625 115.73125 71.3125 114.5625 C72.49349478 105.3086779 76.62795244 96.62337855 80 88 C66.23623389 93.20992882 53.10123172 99.21702153 40.04272461 106.00366211 C38 107 38 107 35 108 C37.14794635 116.13579678 39.32704464 124.26278841 41.5625 132.375 C41.77374512 133.14432861 41.98499023 133.91365723 42.20263672 134.70629883 C43.27170287 138.5531844 44.42612186 142.31535532 45.8125 146.0625 C47.27230557 150.35753488 47.92022647 154.51172563 47 159 C44.5920018 162.47035034 43.19835968 163.74502985 39.0625 164.625 C34.77273233 163.74953721 33.05521957 162.1279629 30 159 C30 158.01 30 157.02 30 156 C29.34 155.67 28.68 155.34 28 155 C27.03214899 152.37800361 26.17451085 149.79778338 25.375 147.125 C25.14554688 146.39152344 24.91609375 145.65804687 24.6796875 144.90234375 C23.74326506 141.842249 23 139.21760772 23 136 C22.34 135.67 21.68 135.34 21 135 C20.05082555 132.88592963 19.18790309 130.73261849 18.375 128.5625 C17.70597656 126.80099609 17.70597656 126.80099609 17.0234375 125.00390625 C16 122 16 122 16 120 C15.113125 120.04125 14.22625 120.0825 13.3125 120.125 C10 120 10 120 7.5625 118.9375 C4.1190983 117.67771889 1.57560575 118.41490088 -2 119 C-6.02651987 118.4375594 -7.45572609 116.58114105 -9.90844727 113.38964844 C-10.60345337 112.45427246 -10.60345337 112.45427246 -11.3125 111.5 C-12.03554321 110.55302246 -12.03554321 110.55302246 -12.77319336 109.58691406 C-13.74023436 108.3195006 -14.70327646 107.04902504 -15.66210938 105.77539062 C-17.43995841 103.41617198 -19.2488846 101.08179123 -21.0625 98.75 C-21.58972656 98.06421875 -22.11695312 97.3784375 -22.66015625 96.671875 C-24.04230123 94.88464377 -24.04230123 94.88464377 -26 93 C-28.47707996 88.1411124 -29.70751243 84.55902625 -29 79 C-27.38679279 75.94642921 -25.96939098 73.76166434 -23.25 71.625 C-19.83729594 70.67702665 -16.45898717 70.23992461 -13 71 C-8.64304273 73.79117575 -6.33892328 77.28081733 -3.9375 81.75 C-3.59460938 82.36891113 -3.25171875 82.98782227 -2.8984375 83.62548828 C-0.47687337 88.02550714 1.82693664 92.47278467 4 97 C4.99 96.01 5.98 95.02 7 94 C1.56008373 77.29021947 -4.43172369 61.02997559 -11.61987305 44.98974609 C-22.51722123 20.61291365 -22.51722123 20.61291365 -18.875 9.5 C-16.60368464 5.26021132 -14.25826467 3.12913234 -10 1 C-8.29636178 0.77377919 -6.58671299 0.59111527 -4.875 0.4375 C-3.96492188 0.35371094 -3.05484375 0.26992188 -2.1171875 0.18359375 C-1.06917969 0.09271484 -1.06917969 0.09271484 0 0 Z M106 60 C104.8423415 61.87957244 104.8423415 61.87957244 105 64 C105.474375 64.7425 105.94875 65.485 106.4375 66.25 C108.53702344 69.94516125 108.88266968 72.91256039 108 77 C107.02606903 78.92034976 105.99992898 80.81466008 104.9375 82.6875 C99.95177053 92.02398396 102.41737359 100.99638637 105.18359375 110.7578125 C105.98499521 113.23375371 105.98499521 113.23375371 108 116 C108.268125 116.886875 108.53625 117.77375 108.8125 118.6875 C111.53705076 126.28756265 116.13363611 132.00356799 122.5 136.9375 C124.95611463 138.25690353 124.95611463 138.25690353 127.5625 137.5 C132.80670119 134.27279927 134.71405858 129.89867695 136.4765625 124.22265625 C137.13104775 121.44353604 137.14212032 118.84240631 137 116 C137.33 115.67 137.66 115.34 138 115 C139.22460989 100.65793419 136.20059487 86.88278934 130 74 C129.67386719 73.31679687 129.34773438 72.63359375 129.01171875 71.9296875 C128.36346584 70.60860336 127.68686431 69.30142712 127 68 C126.34 68 125.68 68 125 68 C124.814375 67.29875 124.62875 66.5975 124.4375 65.875 C122.05928612 61.11857225 118.24571501 57.96244929 113.375 55.875 C109.8599373 56.0600033 108.40940761 57.5236644 106 60 Z M167 82 C168 84 168 84 168 84 Z M155 116 C154.58041016 117.63195312 154.58041016 117.63195312 154.15234375 119.296875 C151.83007817 127.9346783 149.23280188 135.21695743 144.35546875 142.77734375 C142.82644641 144.85069413 142.82644641 144.85069413 143 147 C142.29875 147.268125 141.5975 147.53625 140.875 147.8125 C137.97040444 148.91542094 137.97040444 148.91542094 135.4375 150.625 C129.42222139 153.03111144 123.19125663 153.14885239 117.0703125 150.9453125 C113.63135332 149.2607209 110.71696661 147.71696661 108 145 C107.01 145 106.02 145 105 145 C104.731875 144.195625 104.46375 143.39125 104.1875 142.5625 C103.795625 141.716875 103.40375 140.87125 103 140 C102.01 139.67 101.02 139.34 100 139 C99.26374621 137.36288284 98.61233844 135.68738373 98 134 C96.81654909 131.71610039 95.60675377 129.44571525 94.375 127.1875 C94.05015625 126.59001953 93.7253125 125.99253906 93.390625 125.37695312 C92.59620849 123.91662865 91.79844624 122.45812509 91 121 C90.67 121 90.34 121 90 121 C87.87609542 133.79481225 86.92147427 148.4753318 93.75 159.9375 C98.58955407 164.3737579 103.4479563 165.55046359 109.8515625 165.36328125 C121.0931549 164.06617443 132.15035458 160.80255367 142.9375 157.5 C147.26415477 156.19471518 151.60662173 155.05766514 156 154 C158.4548998 141.01540603 157.90100994 129.0354967 156 116 C155.67 116 155.34 116 155 116 Z " fill="#FFFFFF" transform="translate(127,53)"/>
<path d="M0 0 C6.57435914 4.44181612 11.06065462 10.17772811 14.1796875 17.47265625 C14.34726562 18.36726563 14.51484375 19.261875 14.6875 20.18359375 C14.84992188 20.93898438 15.01234375 21.694375 15.1796875 22.47265625 C15.8396875 22.80265625 16.4996875 23.13265625 17.1796875 23.47265625 C17.88798285 27.0943174 17.98400005 30.79186841 18.1796875 34.47265625 C18.23382813 35.34664062 18.28796875 36.220625 18.34375 37.12109375 C18.7353115 48.97472822 16.53429492 61.27163248 9.3671875 70.91015625 C6.27866518 73.11624362 3.94959442 73.40651753 0.1796875 73.47265625 C-3.39418852 71.88426691 -4.63120822 70.75631267 -6.8203125 67.47265625 C-6.99293736 63.9050759 -7.11420536 60.77418179 -6.328125 57.29296875 C-4.70807787 48.29547623 -3.94655985 36.08514777 -8.55859375 27.9453125 C-10.74169483 25.39723477 -12.53406163 24.859274 -15.8203125 24.47265625 C-20.93555456 24.17754613 -23.82055082 25.87164729 -27.6953125 28.97265625 C-43.76392904 44.40537624 -49.01958827 70.17743121 -50.0703125 91.5859375 C-50.37081578 109.67247838 -47.02335389 131.23577463 -34.8203125 145.47265625 C-31.18342691 148.67972809 -26.8404576 150.25897509 -21.98828125 150.625 C-14.25287915 150.0814312 -8.5511472 146.05402138 -3.44921875 140.48828125 C-0.54202287 136.89088779 0.95002072 133.90807362 1.6796875 129.34765625 C1.41393039 126.36884406 1.41393039 126.36884406 -0.6953125 124.28515625 C-9.66164362 119.0846842 -18.35773947 119.19874834 -28.4296875 119.765625 C-34.42972514 119.94962615 -38.26149234 119.33901374 -43.27490234 115.95263672 C-46.79636596 112.58026508 -47.5532418 108.34604748 -47.96875 103.65234375 C-47.8203125 101.47265625 -47.8203125 101.47265625 -45.8828125 98.66015625 C-38.64191839 93.48808903 -31.48060722 91.49585898 -22.953125 89.48828125 C-18.0203324 88.31215959 -13.21401284 86.77925862 -8.39453125 85.20703125 C-5.8203125 84.47265625 -5.8203125 84.47265625 -2.8203125 84.47265625 C-2.4903125 83.81265625 -2.1603125 83.15265625 -1.8203125 82.47265625 C-0.1703125 82.47265625 1.4796875 82.47265625 3.1796875 82.47265625 C3.5096875 81.81265625 3.8396875 81.15265625 4.1796875 80.47265625 C4.97890625 80.35019531 5.778125 80.22773438 6.6015625 80.1015625 C11.51698562 79.23760713 15.83860916 77.32531069 20.4296875 75.41015625 C22.22530249 74.66622228 24.02212134 73.92518525 25.8203125 73.1875 C26.60954102 72.8587085 27.39876953 72.52991699 28.21191406 72.19116211 C30.1796875 71.47265625 30.1796875 71.47265625 32.1796875 71.47265625 C32.5096875 70.81265625 32.8396875 70.15265625 33.1796875 69.47265625 C34.89744375 68.4379675 36.65448353 67.46785032 38.4296875 66.53515625 C41.28106871 65.02854807 44.06292478 63.54838471 46.76953125 61.79296875 C50.41055972 59.79836968 53.08913275 60.26466194 57.1796875 60.47265625 C57.5096875 59.81265625 57.8396875 59.15265625 58.1796875 58.47265625 C66.04009645 60.5045987 71.3307234 63.52086734 76.1171875 70.16015625 C78.08176994 76.28503092 78.33510537 82.72056849 75.6171875 88.66015625 C73.94504181 91.5983551 71.91334882 93.93886398 69.6171875 96.41015625 C62.20586977 104.50388654 62.07282547 115.36685446 61.86328125 125.84375 C61.8321096 127.16548973 61.8321096 127.16548973 61.80030823 128.51393127 C61.73537417 131.31260009 61.67630512 134.1113592 61.6171875 136.91015625 C61.57392922 138.78581566 61.53031277 140.66146685 61.48632812 142.53710938 C61.44499672 144.34764907 61.403971 146.15819577 61.36328125 147.96875 C61.33517616 149.21911293 61.33517616 149.21911293 61.3065033 150.49473572 C61.28971024 151.29238846 61.27291718 152.0900412 61.25561523 152.91186523 C61.23143021 154.05532913 61.23143021 154.05532913 61.20675659 155.22189331 C61.17979486 157.46372912 61.21131627 159.70004597 61.24633789 161.94165039 C61.1796875 165.47265625 61.1796875 165.47265625 59.9296875 167.47265625 C58.1796875 168.47265625 58.1796875 168.47265625 54.1796875 168.47265625 C52.84952124 165.81232372 53.0007204 163.71303524 52.93359375 160.734375 C52.90193115 159.53441895 52.87026855 158.33446289 52.83764648 157.09814453 C52.80614502 155.7986084 52.77464355 154.49907227 52.7421875 153.16015625 C52.32592568 137.89317607 51.34806603 122.70069314 50.1796875 107.47265625 C47.61580493 110.03653882 48.19722107 116.69583681 48.1171875 120.24169922 C48.1171875 123.13180967 48.14107898 126.02030853 48.1796875 128.91015625 C48.2051193 130.86713314 48.22617869 132.82417334 48.2421875 134.78125 C48.25958984 136.06213501 48.25958984 136.06213501 48.27734375 137.36889648 C48.1796875 139.47265625 48.1796875 139.47265625 47.1796875 141.47265625 C45.51356845 141.51537725 43.84585865 141.51329457 42.1796875 141.47265625 C41.1796875 140.47265625 41.1796875 140.47265625 41.06616211 137.78881836 C41.07139893 136.6210083 41.07663574 135.45319824 41.08203125 134.25 C41.08525391 132.98994141 41.08847656 131.72988281 41.09179688 130.43164062 C41.10015347 129.09114516 41.10861843 127.75065037 41.1171875 126.41015625 C41.1222009 125.06575683 41.12676408 123.72135565 41.13085938 122.37695312 C41.14269262 119.07547684 41.15917779 115.77408822 41.1796875 112.47265625 C40.5196875 112.14265625 39.8596875 111.81265625 39.1796875 111.47265625 C39.8396875 111.47265625 40.4996875 111.47265625 41.1796875 111.47265625 C39.1996875 106.52265625 39.1996875 106.52265625 37.1796875 101.47265625 C31.2396875 101.47265625 25.2996875 101.47265625 19.1796875 101.47265625 C18.8496875 102.13265625 18.5196875 102.79265625 18.1796875 103.47265625 C16.11328125 103.88671875 16.11328125 103.88671875 13.6171875 104.09765625 C12.37775391 104.20980469 12.37775391 104.20980469 11.11328125 104.32421875 C10.47519531 104.37320313 9.83710938 104.4221875 9.1796875 104.47265625 C12.126226 106.27331867 15.06770685 107.9742952 18.1796875 109.47265625 C18.1796875 110.46265625 18.1796875 111.45265625 18.1796875 112.47265625 C18.8190625 112.90578125 19.4584375 113.33890625 20.1171875 113.78515625 C22.97911755 116.12673538 22.76392695 117.8465385 23.1796875 121.47265625 C23.26891512 123.65873283 23.30985371 125.84726556 23.3046875 128.03515625 C23.30855469 129.67677734 23.30855469 129.67677734 23.3125 131.3515625 C23.19219435 134.17874538 22.82468722 136.72372885 22.1796875 139.47265625 C21.5196875 139.47265625 20.8596875 139.47265625 20.1796875 139.47265625 C20.04626953 140.55546875 20.04626953 140.55546875 19.91015625 141.66015625 C17.98550239 149.07058824 11.04052922 154.89834076 5.1796875 159.47265625 C4.8496875 160.13265625 4.5196875 160.79265625 4.1796875 161.47265625 C1.96696498 162.71529777 -0.23003112 163.86278928 -2.5078125 164.97265625 C-3.12076172 165.28074219 -3.73371094 165.58882812 -4.36523438 165.90625 C-14.74520414 171.03569423 -22.60098319 170.89733299 -33.8203125 169.47265625 C-33.8203125 168.81265625 -33.8203125 168.15265625 -33.8203125 167.47265625 C-34.68914062 167.21484375 -35.55796875 166.95703125 -36.453125 166.69140625 C-39.87905565 165.45139423 -42.6312293 163.9323409 -45.6953125 161.97265625 C-46.66210938 161.36421875 -47.62890625 160.75578125 -48.625 160.12890625 C-49.71167969 159.3090625 -49.71167969 159.3090625 -50.8203125 158.47265625 C-50.8203125 157.81265625 -50.8203125 157.15265625 -50.8203125 156.47265625 C-51.4803125 156.47265625 -52.1403125 156.47265625 -52.8203125 156.47265625 C-59.81667258 146.70296425 -66.53900376 135.33546172 -68.8203125 123.47265625 C-68.67603806 125.43110505 -68.52979412 127.38940877 -68.3828125 129.34765625 C-68.29386719 130.53488281 -68.20492187 131.72210938 -68.11328125 132.9453125 C-67.86752086 135.90426759 -67.54934241 138.83797218 -67.1953125 141.78515625 C-66.65587322 147.13604587 -66.6499817 152.00880194 -69.0078125 156.97265625 C-70.8203125 158.47265625 -70.8203125 158.47265625 -73.6953125 159.03515625 C-77.9173969 158.27518106 -79.11021472 156.77059024 -81.8203125 153.47265625 C-82.82885985 150.64993514 -83.53135288 148.13259472 -84.1328125 145.22265625 C-84.32447998 144.36454346 -84.51614746 143.50643066 -84.71362305 142.62231445 C-88.41368225 125.64565553 -91.56167648 108.53828978 -94.8203125 91.47265625 C-95.4803125 91.47265625 -96.1403125 91.47265625 -96.8203125 91.47265625 C-96.8203125 90.81265625 -96.8203125 90.15265625 -96.8203125 89.47265625 C-96.1603125 89.47265625 -95.5003125 89.47265625 -94.8203125 89.47265625 C-95.07425781 88.36792969 -95.32820313 87.26320313 -95.58984375 86.125 C-97.65692296 76.90102331 -99.4450053 67.62825584 -100.8828125 58.28515625 C-101.13671753 56.85320923 -101.13671753 56.85320923 -101.39575195 55.39233398 C-102.24755825 49.44120791 -101.77328237 46.06051578 -98.23999023 41.13549805 C-95.39391462 37.80194327 -95.39391462 37.80194327 -93.8203125 36.47265625 C-92.8303125 36.47265625 -91.8403125 36.47265625 -90.8203125 36.47265625 C-90.4903125 35.81265625 -90.1603125 35.15265625 -89.8203125 34.47265625 C-83.90861549 35.57483705 -80.7264014 36.59004513 -76.8203125 41.47265625 C-76.8203125 42.13265625 -76.8203125 42.79265625 -76.8203125 43.47265625 C-76.1603125 43.80265625 -75.5003125 44.13265625 -74.8203125 44.47265625 C-73.76011466 50.59512323 -73.53267171 56.77255345 -73.2578125 62.97265625 C-73.21462891 63.89046875 -73.17144531 64.80828125 -73.12695312 65.75390625 C-73.02197794 67.99337686 -72.91982002 70.23293717 -72.8203125 72.47265625 C-70.99995692 70.65230067 -71.3320513 68.0413503 -71.02270508 65.59472656 C-68.00650003 42.58969653 -58.13601203 18.61063605 -40.21875 3.26171875 C-27.64773706 -6.11535605 -13.95505736 -7.84686012 0 0 Z " fill="#FFFFFF" transform="translate(459.8203125,55.52734375)"/>
<path d="M0 0 C4.79069788 3.42553859 7.49722552 6.84680618 10.25 12 C10.58773437 12.60328125 10.92546875 13.2065625 11.2734375 13.828125 C15.07273722 20.70874653 17.03850693 26.1046845 16 34 C14.5 36.625 14.5 36.625 12 38 C8.53965971 38.77559351 7.26371533 39.00939649 4 38 C-3.33385939 32.92450366 -12.63378166 24.47301787 -16 16 C-16.60341774 11.61934393 -16.44237302 7.98528536 -14.625 3.9375 C-14.08875 3.298125 -13.5525 2.65875 -13 2 C-12.34 2 -11.68 2 -11 2 C-11 1.34 -11 0.68 -11 0 C-7.12795966 -1.39393452 -3.95636889 -0.95498559 0 0 Z " fill="#FFFFFF" transform="translate(98,148)"/>
<path d="M0 0 C0.66 0.66 1.32 1.32 2 2 C1.34 2 0.68 2 0 2 C0 1.34 0 0.68 0 0 Z " fill="#FFFFFF" transform="translate(209,104)"/>
<path d="M0 0 C3 1 3 1 3 1 Z " fill="#FFFFFF" transform="translate(372,77)"/>
<path d="" fill="#FFFFFF" transform="translate(0,0)"/>
<path d="" fill="#FFFFFF" transform="translate(0,0)"/>
<path d="M0 0 C2 1 2 1 2 1 Z " fill="#FFFFFF" transform="translate(326,215)"/>
<path d="M0 0 C2 1 2 1 2 1 Z " fill="#FFFFFF" transform="translate(238,203)"/>
<path d="" fill="#FFFFFF" transform="translate(0,0)"/>
<path d="" fill="#FFFFFF" transform="translate(0,0)"/>
<path d="" fill="#FFFFFF" transform="translate(0,0)"/>
<path d="M0 0 C2 1 2 1 2 1 Z " fill="#FFFFFF" transform="translate(485,187)"/>
<path d="M0 0 C2 1 2 1 2 1 Z " fill="#FFFFFF" transform="translate(369,183)"/>
<path d="" fill="#FFFFFF" transform="translate(0,0)"/>
<path d="M0 0 C2 1 2 1 2 1 Z " fill="#FFFFFF" transform="translate(259,171)"/>
<path d="" fill="#FFFFFF" transform="translate(0,0)"/>
<path d="" fill="#FFFFFF" transform="translate(0,0)"/>
<path d="M0 0 C2 1 2 1 2 1 Z " fill="#FFFFFF" transform="translate(443,138)"/>
<path d="M0 0 C2 1 2 1 2 1 Z " fill="#FFFFFF" transform="translate(446,136)"/>
<path d="" fill="#FFFFFF" transform="translate(0,0)"/>
<path d="" fill="#FFFFFF" transform="translate(0,0)"/>
<path d="" fill="#FFFFFF" transform="translate(0,0)"/>
<path d="" fill="#FFFFFF" transform="translate(0,0)"/>
<path d="M0 0 C2 1 2 1 2 1 Z " fill="#FFFFFF" transform="translate(390,102)"/>
<path d="M0 0 C2 1 2 1 2 1 Z " fill="#FFFFFF" transform="translate(422,100)"/>
<path d="M0 0 C2 1 2 1 2 1 Z " fill="#FFFFFF" transform="translate(396,88)"/>
<path d="M0 0 C2 1 2 1 2 1 Z " fill="#FFFFFF" transform="translate(400,77)"/>
<path d="" fill="#FFFFFF" transform="translate(0,0)"/>
<path d="M0 0 C2 1 2 1 2 1 Z " fill="#FFFFFF" transform="translate(194,56)"/>
<path d="M0 0 C2 1 2 1 2 1 Z " fill="#FFFFFF" transform="translate(119,52)"/>
<path d="" fill="#FFFFFF" transform="translate(0,0)"/>
<path d="" fill="#FFFFFF" transform="translate(0,0)"/>
<path d="" fill="#FFFFFF" transform="translate(0,0)"/>
<path d="" fill="#FFFFFF" transform="translate(0,0)"/>
<path d="" fill="#FFFFFF" transform="translate(0,0)"/>
<path d="" fill="#FFFFFF" transform="translate(0,0)"/>
<path d="" fill="#FFFFFF" transform="translate(0,0)"/>
<path d="" fill="#FFFFFF" transform="translate(0,0)"/>
<path d="" fill="#FFFFFF" transform="translate(0,0)"/>
<path d="" fill="#FFFFFF" transform="translate(0,0)"/>
<path d="" fill="#FFFFFF" transform="translate(0,0)"/>
<path d="" fill="#FFFFFF" transform="translate(0,0)"/>
<path d="" fill="#FFFFFF" transform="translate(0,0)"/>
<path d="" fill="#FFFFFF" transform="translate(0,0)"/>
<path d="" fill="#FFFFFF" transform="translate(0,0)"/>
<path d="" fill="#FFFFFF" transform="translate(0,0)"/>
<path d="" fill="#FFFFFF" transform="translate(0,0)"/>
<path d="" fill="#FFFFFF" transform="translate(0,0)"/>
<path d="" fill="#FFFFFF" transform="translate(0,0)"/>
<path d="" fill="#FFFFFF" transform="translate(0,0)"/>
<path d="" fill="#FFFFFF" transform="translate(0,0)"/>
<path d="" fill="#FFFFFF" transform="translate(0,0)"/>
<path d="" fill="#FFFFFF" transform="translate(0,0)"/>
<path d="" fill="#FFFFFF" transform="translate(0,0)"/>
<path d="" fill="#FFFFFF" transform="translate(0,0)"/>
<path d="" fill="#FFFFFF" transform="translate(0,0)"/>
<path d="" fill="#FFFFFF" transform="translate(0,0)"/>
<path d="" fill="#FFFFFF" transform="translate(0,0)"/>
<path d="" fill="#FFFFFF" transform="translate(0,0)"/>
<path d="" fill="#FFFFFF" transform="translate(0,0)"/>
<path d="" fill="#FFFFFF" transform="translate(0,0)"/>
<path d="" fill="#FFFFFF" transform="translate(0,0)"/>
<path d="" fill="#FFFFFF" transform="translate(0,0)"/>
<path d="" fill="#FFFFFF" transform="translate(0,0)"/>
<path d="" fill="#FFFFFF" transform="translate(0,0)"/>
<path d="" fill="#FFFFFF" transform="translate(0,0)"/>
<path d="" fill="#FFFFFF" transform="translate(0,0)"/>
<path d="" fill="#FFFFFF" transform="translate(0,0)"/>
<path d="" fill="#FFFFFF" transform="translate(0,0)"/>
<path d="" fill="#FFFFFF" transform="translate(0,0)"/>
<path d="" fill="#FFFFFF" transform="translate(0,0)"/>
<path d="" fill="#FFFFFF" transform="translate(0,0)"/>
<path d="" fill="#FFFFFF" transform="translate(0,0)"/>
<path d="" fill="#FFFFFF" transform="translate(0,0)"/>
<path d="" fill="#FFFFFF" transform="translate(0,0)"/>
<path d="" fill="#FFFFFF" transform="translate(0,0)"/>
<path d="" fill="#FFFFFF" transform="translate(0,0)"/>
<path d="" fill="#FFFFFF" transform="translate(0,0)"/>
<path d="" fill="#FFFFFF" transform="translate(0,0)"/>
<path d="" fill="#FFFFFF" transform="translate(0,0)"/>
<path d="" fill="#FFFFFF" transform="translate(0,0)"/>
<path d="" fill="#FFFFFF" transform="translate(0,0)"/>
<path d="" fill="#FFFFFF" transform="translate(0,0)"/>
<path d="" fill="#FFFFFF" transform="translate(0,0)"/>
<path d="" fill="#FFFFFF" transform="translate(0,0)"/>
<path d="" fill="#FFFFFF" transform="translate(0,0)"/>
<path d="" fill="#FFFFFF" transform="translate(0,0)"/>
<path d="" fill="#FFFFFF" transform="translate(0,0)"/>
<path d="" fill="#FFFFFF" transform="translate(0,0)"/>
<path d="" fill="#FFFFFF" transform="translate(0,0)"/>
<path d="" fill="#FFFFFF" transform="translate(0,0)"/>
<path d="" fill="#FFFFFF" transform="translate(0,0)"/>
<path d="" fill="#FFFFFF" transform="translate(0,0)"/>
<path d="" fill="#FFFFFF" transform="translate(0,0)"/>
<path d="" fill="#FFFFFF" transform="translate(0,0)"/>
<path d="" fill="#FFFFFF" transform="translate(0,0)"/>
<path d="" fill="#FFFFFF" transform="translate(0,0)"/>
<path d="" fill="#FFFFFF" transform="translate(0,0)"/>
<path d="" fill="#FFFFFF" transform="translate(0,0)"/>
<path d="" fill="#FFFFFF" transform="translate(0,0)"/>
<path d="" fill="#FFFFFF" transform="translate(0,0)"/>
<path d="" fill="#FFFFFF" transform="translate(0,0)"/>
<path d="" fill="#FFFFFF" transform="translate(0,0)"/>
<path d="" fill="#FFFFFF" transform="translate(0,0)"/>
<path d="" fill="#FFFFFF" transform="translate(0,0)"/>
<path d="" fill="#FFFFFF" transform="translate(0,0)"/>
<path d="" fill="#FFFFFF" transform="translate(0,0)"/>
<path d="" fill="#FFFFFF" transform="translate(0,0)"/>
<path d="" fill="#FFFFFF" transform="translate(0,0)"/>
<path d="" fill="#FFFFFF" transform="translate(0,0)"/>
<path d="" fill="#FFFFFF" transform="translate(0,0)"/>
<path d="" fill="#FFFFFF" transform="translate(0,0)"/>
<path d="" fill="#FFFFFF" transform="translate(0,0)"/>
<path d="" fill="#FFFFFF" transform="translate(0,0)"/>
<path d="" fill="#FFFFFF" transform="translate(0,0)"/>
<path d="" fill="#FFFFFF" transform="translate(0,0)"/>
<path d="" fill="#FFFFFF" transform="translate(0,0)"/>
<path d="" fill="#FFFFFF" transform="translate(0,0)"/>
<path d="" fill="#FFFFFF" transform="translate(0,0)"/>
<path d="" fill="#FFFFFF" transform="translate(0,0)"/>
<path d="" fill="#FFFFFF" transform="translate(0,0)"/>
<path d="" fill="#FFFFFF" transform="translate(0,0)"/>
<path d="" fill="#FFFFFF" transform="translate(0,0)"/>
<path d="" fill="#FFFFFF" transform="translate(0,0)"/>
<path d="" fill="#FFFFFF" transform="translate(0,0)"/>
<path d="" fill="#FFFFFF" transform="translate(0,0)"/>
<path d="" fill="#FFFFFF" transform="translate(0,0)"/>
<path d="" fill="#FFFFFF" transform="translate(0,0)"/>
<path d="" fill="#FFFFFF" transform="translate(0,0)"/>
<path d="" fill="#FFFFFF" transform="translate(0,0)"/>
<path d="" fill="#FFFFFF" transform="translate(0,0)"/>
<path d="" fill="#FFFFFF" transform="translate(0,0)"/>
<path d="" fill="#FFFFFF" transform="translate(0,0)"/>
<path d="" fill="#FFFFFF" transform="translate(0,0)"/>
<path d="" fill="#FFFFFF" transform="translate(0,0)"/>
<path d="" fill="#FFFFFF" transform="translate(0,0)"/>
<path d="" fill="#FFFFFF" transform="translate(0,0)"/>
<path d="" fill="#FFFFFF" transform="translate(0,0)"/>
<path d="" fill="#FFFFFF" transform="translate(0,0)"/>
<path d="" fill="#FFFFFF" transform="translate(0,0)"/>
<path d="" fill="#FFFFFF" transform="translate(0,0)"/>
<path d="" fill="#FFFFFF" transform="translate(0,0)"/>
<path d="" fill="#FFFFFF" transform="translate(0,0)"/>
<path d="" fill="#FFFFFF" transform="translate(0,0)"/>
<path d="" fill="#FFFFFF" transform="translate(0,0)"/>
<path d="" fill="#FFFFFF" transform="translate(0,0)"/>
<path d="" fill="#FFFFFF" transform="translate(0,0)"/>
<path d="" fill="#FFFFFF" transform="translate(0,0)"/>
<path d="" fill="#FFFFFF" transform="translate(0,0)"/>
<path d="" fill="#FFFFFF" transform="translate(0,0)"/>
<path d="" fill="#FFFFFF" transform="translate(0,0)"/>
<path d="" fill="#FFFFFF" transform="translate(0,0)"/>
<path d="" fill="#FFFFFF" transform="translate(0,0)"/>
<path d="" fill="#FFFFFF" transform="translate(0,0)"/>
<path d="" fill="#FFFFFF" transform="translate(0,0)"/>
<path d="" fill="#FFFFFF" transform="translate(0,0)"/>
<path d="" fill="#FFFFFF" transform="translate(0,0)"/>
<path d="" fill="#FFFFFF" transform="translate(0,0)"/>
<path d="" fill="#FFFFFF" transform="translate(0,0)"/>
<path d="" fill="#FFFFFF" transform="translate(0,0)"/>
<path d="" fill="#FFFFFF" transform="translate(0,0)"/>
<path d="" fill="#FFFFFF" transform="translate(0,0)"/>
<path d="" fill="#FFFFFF" transform="translate(0,0)"/>
<path d="" fill="#FFFFFF" transform="translate(0,0)"/>
<path d="" fill="#FFFFFF" transform="translate(0,0)"/>
<path d="" fill="#FFFFFF" transform="translate(0,0)"/>
<path d="" fill="#FFFFFF" transform="translate(0,0)"/>
<path d="" fill="#FFFFFF" transform="translate(0,0)"/>
<path d="" fill="#FFFFFF" transform="translate(0,0)"/>
<path d="" fill="#FFFFFF" transform="translate(0,0)"/>
<path d="" fill="#FFFFFF" transform="translate(0,0)"/>
<path d="" fill="#FFFFFF" transform="translate(0,0)"/>
<path d="" fill="#FFFFFF" transform="translate(0,0)"/>
<path d="" fill="#FFFFFF" transform="translate(0,0)"/>
<path d="" fill="#FFFFFF" transform="translate(0,0)"/>
<path d="" fill="#FFFFFF" transform="translate(0,0)"/>
<path d="" fill="#FFFFFF" transform="translate(0,0)"/>
<path d="" fill="#FFFFFF" transform="translate(0,0)"/>
<path d="" fill="#FFFFFF" transform="translate(0,0)"/>
<path d="" fill="#FFFFFF" transform="translate(0,0)"/>
<path d="" fill="#FFFFFF" transform="translate(0,0)"/>
<path d="" fill="#FFFFFF" transform="translate(0,0)"/>
<path d="" fill="#FFFFFF" transform="translate(0,0)"/>
<path d="" fill="#FFFFFF" transform="translate(0,0)"/>
<path d="" fill="#FFFFFF" transform="translate(0,0)"/>
<path d="" fill="#FFFFFF" transform="translate(0,0)"/>
<path d="" fill="#FFFFFF" transform="translate(0,0)"/>
<path d="" fill="#FFFFFF" transform="translate(0,0)"/>
<path d="" fill="#FFFFFF" transform="translate(0,0)"/>
<path d="" fill="#FFFFFF" transform="translate(0,0)"/>
<path d="" fill="#FFFFFF" transform="translate(0,0)"/>
<path d="" fill="#FFFFFF" transform="translate(0,0)"/>
<path d="" fill="#FFFFFF" transform="translate(0,0)"/>
<path d="" fill="#FFFFFF" transform="translate(0,0)"/>
<path d="" fill="#FFFFFF" transform="translate(0,0)"/>
<path d="" fill="#FFFFFF" transform="translate(0,0)"/>
<path d="" fill="#FFFFFF" transform="translate(0,0)"/>
<path d="" fill="#FFFFFF" transform="translate(0,0)"/>
<path d="" fill="#FFFFFF" transform="translate(0,0)"/>
<path d="" fill="#FFFFFF" transform="translate(0,0)"/>
<path d="" fill="#FFFFFF" transform="translate(0,0)"/>
<path d="" fill="#FFFFFF" transform="translate(0,0)"/>
<path d="" fill="#FFFFFF" transform="translate(0,0)"/>
<path d="" fill="#FFFFFF" transform="translate(0,0)"/>
<path d="" fill="#FFFFFF" transform="translate(0,0)"/>
<path d="" fill="#FFFFFF" transform="translate(0,0)"/>
<path d="" fill="#FFFFFF" transform="translate(0,0)"/>
<path d="" fill="#FFFFFF" transform="translate(0,0)"/>
<path d="" fill="#FFFFFF" transform="translate(0,0)"/>
<path d="" fill="#FFFFFF" transform="translate(0,0)"/>
<path d="" fill="#FFFFFF" transform="translate(0,0)"/>
<path d="" fill="#FFFFFF" transform="translate(0,0)"/>
<path d="" fill="#FFFFFF" transform="translate(0,0)"/>
<path d="" fill="#FFFFFF" transform="translate(0,0)"/>
<path d="" fill="#FFFFFF" transform="translate(0,0)"/>
<path d="" fill="#FFFFFF" transform="translate(0,0)"/>
<path d="" fill="#FFFFFF" transform="translate(0,0)"/>
<path d="" fill="#FFFFFF" transform="translate(0,0)"/>
<path d="" fill="#FFFFFF" transform="translate(0,0)"/>
<path d="" fill="#FFFFFF" transform="translate(0,0)"/>
<path d="" fill="#FFFFFF" transform="translate(0,0)"/>
<path d="" fill="#FFFFFF" transform="translate(0,0)"/>
<path d="" fill="#FFFFFF" transform="translate(0,0)"/>
<path d="" fill="#FFFFFF" transform="translate(0,0)"/>
<path d="" fill="#FFFFFF" transform="translate(0,0)"/>
<path d="" fill="#FFFFFF" transform="translate(0,0)"/>
<path d="" fill="#FFFFFF" transform="translate(0,0)"/>
<path d="" fill="#FFFFFF" transform="translate(0,0)"/>
<path d="" fill="#FFFFFF" transform="translate(0,0)"/>
<path d="" fill="#FFFFFF" transform="translate(0,0)"/>
<path d="" fill="#FFFFFF" transform="translate(0,0)"/>
<path d="" fill="#FFFFFF" transform="translate(0,0)"/>
<path d="" fill="#FFFFFF" transform="translate(0,0)"/>
<path d="" fill="#FFFFFF" transform="translate(0,0)"/>
<path d="" fill="#FFFFFF" transform="translate(0,0)"/>
<path d="" fill="#FFFFFF" transform="translate(0,0)"/>
<path d="" fill="#FFFFFF" transform="translate(0,0)"/>
<path d="" fill="#FFFFFF" transform="translate(0,0)"/>
<path d="" fill="#FFFFFF" transform="translate(0,0)"/>
<path d="" fill="#FFFFFF" transform="translate(0,0)"/>
<path d="" fill="#FFFFFF" transform="translate(0,0)"/>
<path d="" fill="#FFFFFF" transform="translate(0,0)"/>
<path d="" fill="#FFFFFF" transform="translate(0,0)"/>
<path d="" fill="#FFFFFF" transform="translate(0,0)"/>
<path d="" fill="#FFFFFF" transform="translate(0,0)"/>
<path d="" fill="#FFFFFF" transform="translate(0,0)"/>
<path d="" fill="#FFFFFF" transform="translate(0,0)"/>
<path d="" fill="#FFFFFF" transform="translate(0,0)"/>
<path d="" fill="#FFFFFF" transform="translate(0,0)"/>
<path d="" fill="#FFFFFF" transform="translate(0,0)"/>
<path d="" fill="#FFFFFF" transform="translate(0,0)"/>
<path d="" fill="#FFFFFF" transform="translate(0,0)"/>
<path d="" fill="#FFFFFF" transform="translate(0,0)"/>
<path d="" fill="#FFFFFF" transform="translate(0,0)"/>
<path d="" fill="#FFFFFF" transform="translate(0,0)"/>
<path d="" fill="#FFFFFF" transform="translate(0,0)"/>
<path d="" fill="#FFFFFF" transform="translate(0,0)"/>
<path d="" fill="#FFFFFF" transform="translate(0,0)"/>
<path d="" fill="#FFFFFF" transform="translate(0,0)"/>
<path d="" fill="#FFFFFF" transform="translate(0,0)"/>
<path d="" fill="#FFFFFF" transform="translate(0,0)"/>
<path d="" fill="#FFFFFF" transform="translate(0,0)"/>
<path d="" fill="#FFFFFF" transform="translate(0,0)"/>
<path d="" fill="#FFFFFF" transform="translate(0,0)"/>
<path d="" fill="#FFFFFF" transform="translate(0,0)"/>
<path d="" fill="#FFFFFF" transform="translate(0,0)"/>
<path d="" fill="#FFFFFF" transform="translate(0,0)"/>
<path d="" fill="#FFFFFF" transform="translate(0,0)"/>
<path d="" fill="#FFFFFF" transform="translate(0,0)"/>
<path d="" fill="#FFFFFF" transform="translate(0,0)"/>
<path d="" fill="#FFFFFF" transform="translate(0,0)"/>
<path d="" fill="#FFFFFF" transform="translate(0,0)"/>
<path d="" fill="#FFFFFF" transform="translate(0,0)"/>
<path d="" fill="#FFFFFF" transform="translate(0,0)"/>
<path d="" fill="#FFFFFF" transform="translate(0,0)"/>
<path d="" fill="#FFFFFF" transform="translate(0,0)"/>
<path d="" fill="#FFFFFF" transform="translate(0,0)"/>
<path d="" fill="#FFFFFF" transform="translate(0,0)"/>
<path d="" fill="#FFFFFF" transform="translate(0,0)"/>
<path d="" fill="#FFFFFF" transform="translate(0,0)"/>
<path d="" fill="#FFFFFF" transform="translate(0,0)"/>
<path d="" fill="#FFFFFF" transform="translate(0,0)"/>
<path d="" fill="#FFFFFF" transform="translate(0,0)"/>
<path d="" fill="#FFFFFF" transform="translate(0,0)"/>
<path d="" fill="#FFFFFF" transform="translate(0,0)"/>
<path d="" fill="#FFFFFF" transform="translate(0,0)"/>
<path d="" fill="#FFFFFF" transform="translate(0,0)"/>
<path d="" fill="#FFFFFF" transform="translate(0,0)"/>
<path d="" fill="#FFFFFF" transform="translate(0,0)"/>
<path d="" fill="#FFFFFF" transform="translate(0,0)"/>
<path d="" fill="#FFFFFF" transform="translate(0,0)"/>
<path d="" fill="#FFFFFF" transform="translate(0,0)"/>
<path d="" fill="#FFFFFF" transform="translate(0,0)"/>
<path d="" fill="#FFFFFF" transform="translate(0,0)"/>
<path d="" fill="#FFFFFF" transform="translate(0,0)"/>
<path d="" fill="#FFFFFF" transform="translate(0,0)"/>
<path d="" fill="#FFFFFF" transform="translate(0,0)"/>
<path d="" fill="#FFFFFF" transform="translate(0,0)"/>
<path d="" fill="#FFFFFF" transform="translate(0,0)"/>
<path d="" fill="#FFFFFF" transform="translate(0,0)"/>
<path d="" fill="#FFFFFF" transform="translate(0,0)"/>
<path d="" fill="#FFFFFF" transform="translate(0,0)"/>
<path d="" fill="#FFFFFF" transform="translate(0,0)"/>
<path d="" fill="#FFFFFF" transform="translate(0,0)"/>
<path d="" fill="#FFFFFF" transform="translate(0,0)"/>
<path d="" fill="#FFFFFF" transform="translate(0,0)"/>
<path d="" fill="#FFFFFF" transform="translate(0,0)"/>
<path d="" fill="#FFFFFF" transform="translate(0,0)"/>
<path d="" fill="#FFFFFF" transform="translate(0,0)"/>
<path d="" fill="#FFFFFF" transform="translate(0,0)"/>
<path d="" fill="#FFFFFF" transform="translate(0,0)"/>
<path d="" fill="#FFFFFF" transform="translate(0,0)"/>
<path d="" fill="#FFFFFF" transform="translate(0,0)"/>
<path d="" fill="#FFFFFF" transform="translate(0,0)"/>
<path d="" fill="#FFFFFF" transform="translate(0,0)"/>
<path d="" fill="#FFFFFF" transform="translate(0,0)"/>
<path d="" fill="#FFFFFF" transform="translate(0,0)"/>
<path d="" fill="#FFFFFF" transform="translate(0,0)"/>
<path d="" fill="#FFFFFF" transform="translate(0,0)"/>
<path d="" fill="#FFFFFF" transform="translate(0,0)"/>
<path d="" fill="#FFFFFF" transform="translate(0,0)"/>
<path d="" fill="#FFFFFF" transform="translate(0,0)"/>
<path d="" fill="#FFFFFF" transform="translate(0,0)"/>
<path d="" fill="#FFFFFF" transform="translate(0,0)"/>
<path d="" fill="#FFFFFF" transform="translate(0,0)"/>
<path d="" fill="#FFFFFF" transform="translate(0,0)"/>
<path d="" fill="#FFFFFF" transform="translate(0,0)"/>
<path d="" fill="#FFFFFF" transform="translate(0,0)"/>
<path d="" fill="#FFFFFF" transform="translate(0,0)"/>
<path d="" fill="#FFFFFF" transform="translate(0,0)"/>
<path d="" fill="#FFFFFF" transform="translate(0,0)"/>
<path d="" fill="#FFFFFF" transform="translate(0,0)"/>
<path d="" fill="#FFFFFF" transform="translate(0,0)"/>
<path d="" fill="#FFFFFF" transform="translate(0,0)"/>
<path d="" fill="#FFFFFF" transform="translate(0,0)"/>
<path d="" fill="#FFFFFF" transform="translate(0,0)"/>
<path d="" fill="#FFFFFF" transform="translate(0,0)"/>
<path d="" fill="#FFFFFF" transform="translate(0,0)"/>
<path d="" fill="#FFFFFF" transform="translate(0,0)"/>
<path d="" fill="#FFFFFF" transform="translate(0,0)"/>
<path d="" fill="#FFFFFF" transform="translate(0,0)"/>
<path d="" fill="#FFFFFF" transform="translate(0,0)"/>
<path d="" fill="#FFFFFF" transform="translate(0,0)"/>
<path d="" fill="#FFFFFF" transform="translate(0,0)"/>
<path d="" fill="#FFFFFF" transform="translate(0,0)"/>
<path d="" fill="#FFFFFF" transform="translate(0,0)"/>
<path d="" fill="#FFFFFF" transform="translate(0,0)"/>
<path d="" fill="#FFFFFF" transform="translate(0,0)"/>
<path d="" fill="#FFFFFF" transform="translate(0,0)"/>
<path d="" fill="#FFFFFF" transform="translate(0,0)"/>
<path d="" fill="#FFFFFF" transform="translate(0,0)"/>
<path d="" fill="#FFFFFF" transform="translate(0,0)"/>
<path d="" fill="#FFFFFF" transform="translate(0,0)"/>
<path d="" fill="#FFFFFF" transform="translate(0,0)"/>
<path d="" fill="#FFFFFF" transform="translate(0,0)"/>
<path d="" fill="#FFFFFF" transform="translate(0,0)"/>
<path d="" fill="#FFFFFF" transform="translate(0,0)"/>
<path d="" fill="#FFFFFF" transform="translate(0,0)"/>
<path d="" fill="#FFFFFF" transform="translate(0,0)"/>
<path d="" fill="#FFFFFF" transform="translate(0,0)"/>
<path d="" fill="#FFFFFF" transform="translate(0,0)"/>
<path d="" fill="#FFFFFF" transform="translate(0,0)"/>
<path d="" fill="#FFFFFF" transform="translate(0,0)"/>
<path d="" fill="#FFFFFF" transform="translate(0,0)"/>
<path d="" fill="#FFFFFF" transform="translate(0,0)"/>
<path d="" fill="#FFFFFF" transform="translate(0,0)"/>
<path d="" fill="#FFFFFF" transform="translate(0,0)"/>
<path d="" fill="#FFFFFF" transform="translate(0,0)"/>
<path d="" fill="#FFFFFF" transform="translate(0,0)"/>
<path d="" fill="#FFFFFF" transform="translate(0,0)"/>
<path d="" fill="#FFFFFF" transform="translate(0,0)"/>
<path d="" fill="#FFFFFF" transform="translate(0,0)"/>
<path d="" fill="#FFFFFF" transform="translate(0,0)"/>
<path d="" fill="#FFFFFF" transform="translate(0,0)"/>
<path d="" fill="#FFFFFF" transform="translate(0,0)"/>
<path d="" fill="#FFFFFF" transform="translate(0,0)"/>
<path d="" fill="#FFFFFF" transform="translate(0,0)"/>
<path d="" fill="#FFFFFF" transform="translate(0,0)"/>
<path d="" fill="#FFFFFF" transform="translate(0,0)"/>
<path d="" fill="#FFFFFF" transform="translate(0,0)"/>
<path d="" fill="#FFFFFF" transform="translate(0,0)"/>
<path d="" fill="#FFFFFF" transform="translate(0,0)"/>
<path d="" fill="#FFFFFF" transform="translate(0,0)"/>
<path d="" fill="#FFFFFF" transform="translate(0,0)"/>
<path d="" fill="#FFFFFF" transform="translate(0,0)"/>
<path d="" fill="#FFFFFF" transform="translate(0,0)"/>
<path d="" fill="#FFFFFF" transform="translate(0,0)"/>
<path d="" fill="#FFFFFF" transform="translate(0,0)"/>
<path d="" fill="#FFFFFF" transform="translate(0,0)"/>
<path d="" fill="#FFFFFF" transform="translate(0,0)"/>
<path d="" fill="#FFFFFF" transform="translate(0,0)"/>
<path d="" fill="#FFFFFF" transform="translate(0,0)"/>
<path d="" fill="#FFFFFF" transform="translate(0,0)"/>
<path d="" fill="#FFFFFF" transform="translate(0,0)"/>
</svg>
